<svg width="25" height="25" viewBox="0 0 25 25" fill="none" xmlns="http://www.w3.org/2000/svg">
<path d="M16.3854 2.08325C14.7291 2.08325 14.0625 2.74992 14.0625 4.40617V8.6145C14.0625 10.2708 14.7291 10.9374 16.3854 10.9374H20.5937C22.25 10.9374 22.9166 10.2708 22.9166 8.6145V4.40617C22.9166 2.74992 22.25 2.08325 20.5937 2.08325M8.61456 22.9166C10.2708 22.9166 10.9375 22.2499 10.9375 20.5937V16.3853C10.9375 14.7291 10.2708 14.0624 8.61456 14.0624H4.40623C2.74998 14.0624 2.08331 14.7291 2.08331 16.3853V20.5937C2.08331 22.2499 2.74998 22.9166 4.40623 22.9166M10.9375 8.87492V4.14575C10.9375 2.677 10.2708 2.08325 8.61456 2.08325H4.40623C2.74998 2.08325 2.08331 2.677 2.08331 4.14575V8.8645C2.08331 10.3437 2.74998 10.927 4.40623 10.927H8.61456C10.2708 10.9374 10.9375 10.3437 10.9375 8.87492Z" stroke="white" stroke-width="1.5" stroke-linecap="round" stroke-linejoin="round"/>
<path d="M15.625 16.1458H21.875M15.625 20.3124H21.875" stroke="white" stroke-width="1.5" stroke-linecap="round"/>
</svg>
