<svg width="24" height="24" viewBox="0 0 24 24" fill="none" xmlns="http://www.w3.org/2000/svg">
<path d="M18 18.86H17.24C16.44 18.86 15.68 19.17 15.12 19.73L13.41 21.42C12.63 22.19 11.36 22.19 10.58 21.42L8.87 19.73C8.31 19.17 7.54 18.86 6.75 18.86H6C4.34 18.86 3 17.53 3 15.89V4.98001C3 3.34001 4.34 2.01001 6 2.01001H18C19.66 2.01001 21 3.34001 21 4.98001V15.89C21 17.52 19.66 18.86 18 18.86Z" stroke="#8CAAB9" stroke-width="1.5" stroke-miterlimit="10" stroke-linecap="round" stroke-linejoin="round"/>
<path d="M16 15.66C16 13.86 14.21 12.4 12 12.4C9.79 12.4 8 13.86 8 15.66M12 10C12.306 10 12.609 9.93973 12.8917 9.82264C13.1743 9.70554 13.4312 9.53392 13.6476 9.31756C13.8639 9.10119 14.0355 8.84434 14.1526 8.56165C14.2697 8.27896 14.33 7.97598 14.33 7.67C14.33 7.36402 14.2697 7.06103 14.1526 6.77834C14.0355 6.49566 13.8639 6.2388 13.6476 6.02244C13.4312 5.80608 13.1743 5.63445 12.8917 5.51736C12.609 5.40026 12.306 5.34 12 5.34C11.382 5.34 10.7894 5.58548 10.3524 6.02244C9.91548 6.4594 9.67 7.05204 9.67 7.67C9.67 8.28795 9.91548 8.8806 10.3524 9.31756C10.7894 9.75452 11.382 10 12 10Z" stroke="#8CAAB9" stroke-width="1.5" stroke-linecap="round" stroke-linejoin="round"/>
</svg>
